<svg width="145" height="38" viewBox="0 0 145 38" fill="none" xmlns="http://www.w3.org/2000/svg">
<g filter="url(#filter0_dd_76_25373)">
<g clip-path="url(#clip0_76_25373)">
<rect x="3" y="2" width="32" height="32" rx="8" fill="white"/>
<rect x="3" y="2" width="32" height="32" rx="8" fill="url(#paint0_linear_76_25373)"/>
<path fill-rule="evenodd" clip-rule="evenodd" d="M18.9998 4.03861C11.2892 4.03861 5.03861 10.2892 5.03861 17.9998C5.03861 25.7103 11.2892 31.9609 18.9998 31.9609C26.7103 31.9609 32.9609 25.7103 32.9609 17.9998C32.9609 10.2892 26.7103 4.03861 18.9998 4.03861ZM4.96094 17.9998C4.96094 10.2463 11.2463 3.96094 18.9998 3.96094C26.7532 3.96094 33.0386 10.2463 33.0386 17.9998C33.0386 25.7532 26.7532 32.0386 18.9998 32.0386C11.2463 32.0386 4.96094 25.7532 4.96094 17.9998Z" fill="#D0D5DD"/>
<path fill-rule="evenodd" clip-rule="evenodd" d="M19 14.0777C16.8338 14.0777 15.0777 15.8338 15.0777 18C15.0777 20.1662 16.8338 21.9223 19 21.9223C21.1662 21.9223 22.9223 20.1662 22.9223 18C22.9223 15.8338 21.1662 14.0777 19 14.0777ZM15 18C15 15.7909 16.7909 14 19 14C21.2091 14 23 15.7909 23 18C23 20.2091 21.2091 22 19 22C16.7909 22 15 20.2091 15 18Z" fill="#D0D5DD"/>
<path fill-rule="evenodd" clip-rule="evenodd" d="M19 15.3199C17.52 15.3199 16.3203 16.5196 16.3203 17.9995C16.3203 19.4794 17.52 20.6791 19 20.6791C20.4799 20.6791 21.6796 19.4794 21.6796 17.9995C21.6796 16.5196 20.4799 15.3199 19 15.3199ZM16.2427 17.9995C16.2427 16.4767 17.4772 15.2422 19 15.2422C20.5228 15.2422 21.7572 16.4767 21.7572 17.9995C21.7572 19.5223 20.5228 20.7568 19 20.7568C17.4772 20.7568 16.2427 19.5223 16.2427 17.9995Z" fill="#D0D5DD"/>
<path d="M18.9609 2H19.0386V34H18.9609V2Z" fill="#D0D5DD"/>
<path d="M35 17.9609L35 18.0386L3 18.0386L3 17.9609L35 17.9609Z" fill="#D0D5DD"/>
<path d="M29.6021 2H29.6797V34H29.6021V2Z" fill="#D0D5DD"/>
<path d="M13.6406 2H13.7183V34H13.6406V2Z" fill="#D0D5DD"/>
<path d="M24.2817 2H24.3594V34H24.2817V2Z" fill="#D0D5DD"/>
<path d="M8.32031 2H8.39798V34H8.32031V2Z" fill="#D0D5DD"/>
<path d="M35 28.6016L35 28.6792L3 28.6792L3 28.6016L35 28.6016Z" fill="#D0D5DD"/>
<path d="M35 12.6406L35 12.7183L3 12.7183L3 12.6406L35 12.6406Z" fill="#D0D5DD"/>
<path d="M35 23.2812L35 23.3589L3 23.3589L3 23.2812L35 23.2812Z" fill="#D0D5DD"/>
<path d="M35 7.32031L35 7.39798L3 7.39798L3 7.32031L35 7.32031Z" fill="#D0D5DD"/>
<g filter="url(#filter1_dd_76_25373)">
<circle cx="19" cy="18" r="8" fill="url(#paint1_linear_76_25373)"/>
</g>
<g filter="url(#filter2_b_76_25373)">
<path d="M3 18H35V21.2C35 25.6804 35 27.9206 34.1281 29.6319C33.3611 31.1372 32.1372 32.3611 30.6319 33.1281C28.9206 34 26.6804 34 22.2 34H15.8C11.3196 34 9.07937 34 7.36808 33.1281C5.86278 32.3611 4.63893 31.1372 3.87195 29.6319C3 27.9206 3 25.6804 3 21.2V18Z" fill="white" fill-opacity="0.2"/>
</g>
</g>
<rect x="3.1" y="2.1" width="31.8" height="31.8" rx="7.9" stroke="#D0D5DD" stroke-width="0.2"/>
</g>
<path d="M54.0035 10.4551H56.6384V19.9579C56.6384 20.9996 56.3922 21.9158 55.8998 22.7065C55.4121 23.4972 54.7256 24.1151 53.8402 24.5602C52.9547 25.0005 51.9202 25.2207 50.7365 25.2207C49.548 25.2207 48.5111 25.0005 47.6257 24.5602C46.7402 24.1151 46.0537 23.4972 45.566 22.7065C45.0783 21.9158 44.8345 20.9996 44.8345 19.9579V10.4551H47.4694V19.7377C47.4694 20.3438 47.602 20.8836 47.8671 21.3571C48.137 21.8306 48.5158 22.2022 49.0035 22.4721C49.4912 22.7373 50.0688 22.8699 50.7365 22.8699C51.4041 22.8699 51.9817 22.7373 52.4694 22.4721C52.9618 22.2022 53.3406 21.8306 53.6058 21.3571C53.8709 20.8836 54.0035 20.3438 54.0035 19.7377V10.4551Z" fill="white"/>
<path d="M61.9598 18.6085V25.0005H59.3888V14.0914H61.8462V15.9451H61.974C62.225 15.3343 62.6251 14.849 63.1743 14.4892C63.7283 14.1293 64.4125 13.9494 65.2269 13.9494C65.9797 13.9494 66.6355 14.1104 67.1942 14.4324C67.7577 14.7543 68.1933 15.2207 68.501 15.8315C68.8135 16.4423 68.9674 17.1833 68.9627 18.0545V25.0005H66.3916V18.4522C66.3916 17.7231 66.2023 17.1525 65.8235 16.7406C65.4494 16.3287 64.9309 16.1227 64.2681 16.1227C63.8183 16.1227 63.4182 16.2221 63.0678 16.421C62.7221 16.6151 62.4499 16.8968 62.251 17.2662C62.0569 17.6355 61.9598 18.0829 61.9598 18.6085Z" fill="white"/>
<path d="M77.0238 14.0914V16.0801H70.7524V14.0914H77.0238ZM72.3007 11.4778H74.8718V21.7193C74.8718 22.0649 74.9238 22.3301 75.028 22.5147C75.1369 22.6947 75.279 22.8178 75.4541 22.8841C75.6293 22.9503 75.8235 22.9835 76.0365 22.9835C76.1975 22.9835 76.3443 22.9717 76.4769 22.948C76.6142 22.9243 76.7184 22.903 76.7894 22.8841L77.2226 24.894C77.0853 24.9413 76.8888 24.9934 76.6331 25.0502C76.3822 25.1071 76.0744 25.1402 75.7098 25.1497C75.0659 25.1686 74.4859 25.0716 73.9698 24.8585C73.4537 24.6407 73.0441 24.3045 72.7411 23.85C72.4428 23.3954 72.296 22.8272 72.3007 22.1454V11.4778Z" fill="white"/>
<path d="M79.174 25.0005V14.0914H81.745V25.0005H79.174ZM80.4666 12.5431C80.0594 12.5431 79.709 12.4082 79.4154 12.1383C79.1219 11.8637 78.9751 11.5346 78.9751 11.1511C78.9751 10.7628 79.1219 10.4338 79.4154 10.1639C79.709 9.88926 80.0594 9.75195 80.4666 9.75195C80.8785 9.75195 81.2289 9.88926 81.5177 10.1639C81.8113 10.4338 81.9581 10.7628 81.9581 11.1511C81.9581 11.5346 81.8113 11.8637 81.5177 12.1383C81.2289 12.4082 80.8785 12.5431 80.4666 12.5431Z" fill="white"/>
<path d="M89.8363 14.0914V16.0801H83.5649V14.0914H89.8363ZM85.1132 11.4778H87.6843V21.7193C87.6843 22.0649 87.7363 22.3301 87.8405 22.5147C87.9494 22.6947 88.0915 22.8178 88.2666 22.8841C88.4418 22.9503 88.636 22.9835 88.849 22.9835C89.01 22.9835 89.1568 22.9717 89.2894 22.948C89.4267 22.9243 89.5309 22.903 89.6019 22.8841L90.0351 24.894C89.8978 24.9413 89.7013 24.9934 89.4456 25.0502C89.1947 25.1071 88.8869 25.1402 88.5223 25.1497C87.8784 25.1686 87.2984 25.0716 86.7823 24.8585C86.2662 24.6407 85.8566 24.3045 85.5536 23.85C85.2553 23.3954 85.1085 22.8272 85.1132 22.1454V11.4778Z" fill="white"/>
<path d="M94.7919 10.4551V25.0005H92.2208V10.4551H94.7919Z" fill="white"/>
<path d="M102.265 25.2136C101.171 25.2136 100.227 24.9863 99.4314 24.5318C98.6407 24.0725 98.0323 23.4238 97.6061 22.5858C97.18 21.743 96.9669 20.751 96.9669 19.6099C96.9669 18.4877 97.18 17.5029 97.6061 16.6554C98.037 15.8031 98.6383 15.1402 99.4101 14.6667C100.182 14.1885 101.089 13.9494 102.13 13.9494C102.803 13.9494 103.437 14.0583 104.034 14.2761C104.635 14.4892 105.165 14.8206 105.625 15.2704C106.089 15.7202 106.453 16.2931 106.718 16.9892C106.984 17.6805 107.116 18.5043 107.116 19.4608V20.2491H98.1743V18.5162H104.652C104.647 18.0237 104.54 17.5858 104.332 17.2022C104.124 16.814 103.832 16.5086 103.458 16.286C103.089 16.0635 102.658 15.9522 102.166 15.9522C101.64 15.9522 101.179 16.0801 100.781 16.3358C100.383 16.5867 100.073 16.9181 99.8505 17.3301C99.6326 17.7373 99.5214 18.1847 99.5166 18.6724V20.1852C99.5166 20.8197 99.6327 21.3642 99.8647 21.8187C100.097 22.2685 100.421 22.6142 100.838 22.8556C101.254 23.0924 101.742 23.2108 102.301 23.2108C102.675 23.2108 103.013 23.1587 103.316 23.0545C103.619 22.9456 103.882 22.787 104.105 22.5787C104.327 22.3703 104.495 22.1123 104.609 21.8045L107.01 22.0744C106.858 22.7089 106.569 23.2628 106.143 23.7363C105.722 24.2051 105.182 24.5697 104.524 24.8301C103.866 25.0858 103.113 25.2136 102.265 25.2136Z" fill="white"/>
<path d="M113.339 25.1923C112.482 25.1923 111.715 24.9721 111.038 24.5318C110.361 24.0914 109.826 23.4522 109.433 22.6142C109.04 21.7761 108.844 20.7581 108.844 19.5602C108.844 18.3481 109.043 17.3253 109.44 16.492C109.843 15.6539 110.385 15.0218 111.067 14.5957C111.749 14.1648 112.508 13.9494 113.347 13.9494C113.986 13.9494 114.511 14.0583 114.923 14.2761C115.335 14.4892 115.662 14.7472 115.903 15.0502C116.145 15.3485 116.332 15.6303 116.464 15.8954H116.571V10.4551H119.149V25.0005H116.621V23.2818H116.464C116.332 23.5469 116.14 23.8287 115.889 24.127C115.638 24.4205 115.307 24.6715 114.895 24.8798C114.483 25.0881 113.964 25.1923 113.339 25.1923ZM114.057 23.0829C114.601 23.0829 115.065 22.9361 115.449 22.6426C115.832 22.3443 116.124 21.93 116.322 21.3997C116.521 20.8694 116.621 20.2515 116.621 19.546C116.621 18.8405 116.521 18.2273 116.322 17.7065C116.128 17.1857 115.839 16.7808 115.456 16.492C115.077 16.2032 114.611 16.0588 114.057 16.0588C113.484 16.0588 113.006 16.2079 112.622 16.5062C112.239 16.8045 111.95 17.2164 111.756 17.742C111.562 18.2676 111.464 18.8689 111.464 19.546C111.464 20.2278 111.562 20.8362 111.756 21.3713C111.954 21.9016 112.246 22.3206 112.629 22.6284C113.017 22.9314 113.493 23.0829 114.057 23.0829Z" fill="white"/>
<path d="M136.132 10.4551H138.767V19.9579C138.767 20.9996 138.521 21.9158 138.029 22.7065C137.541 23.4972 136.854 24.1151 135.969 24.5602C135.084 25.0005 134.049 25.2207 132.865 25.2207C131.677 25.2207 130.64 25.0005 129.755 24.5602C128.869 24.1151 128.183 23.4972 127.695 22.7065C127.207 21.9158 126.963 20.9996 126.963 19.9579V10.4551H129.598V19.7377C129.598 20.3438 129.731 20.8836 129.996 21.3571C130.266 21.8306 130.645 22.2022 131.132 22.4721C131.62 22.7373 132.198 22.8699 132.865 22.8699C133.533 22.8699 134.111 22.7373 134.598 22.4721C135.091 22.2022 135.47 21.8306 135.735 21.3571C136 20.8836 136.132 20.3438 136.132 19.7377V10.4551Z" fill="white"/>
<path d="M144.266 10.4551V25.0005H141.631V10.4551H144.266Z" fill="white"/>
<defs>
<filter id="filter0_dd_76_25373" x="0" y="0" width="38" height="38" filterUnits="userSpaceOnUse" color-interpolation-filters="sRGB">
<feFlood flood-opacity="0" result="BackgroundImageFix"/>
<feColorMatrix in="SourceAlpha" type="matrix" values="0 0 0 0 0 0 0 0 0 0 0 0 0 0 0 0 0 0 127 0" result="hardAlpha"/>
<feOffset dy="1"/>
<feGaussianBlur stdDeviation="1"/>
<feColorMatrix type="matrix" values="0 0 0 0 0.0627451 0 0 0 0 0.0941176 0 0 0 0 0.156863 0 0 0 0.06 0"/>
<feBlend mode="normal" in2="BackgroundImageFix" result="effect1_dropShadow_76_25373"/>
<feColorMatrix in="SourceAlpha" type="matrix" values="0 0 0 0 0 0 0 0 0 0 0 0 0 0 0 0 0 0 127 0" result="hardAlpha"/>
<feOffset dy="1"/>
<feGaussianBlur stdDeviation="1.5"/>
<feColorMatrix type="matrix" values="0 0 0 0 0.0627451 0 0 0 0 0.0941176 0 0 0 0 0.156863 0 0 0 0.1 0"/>
<feBlend mode="normal" in2="effect1_dropShadow_76_25373" result="effect2_dropShadow_76_25373"/>
<feBlend mode="normal" in="SourceGraphic" in2="effect2_dropShadow_76_25373" result="shape"/>
</filter>
<filter id="filter1_dd_76_25373" x="8" y="8" width="22" height="22" filterUnits="userSpaceOnUse" color-interpolation-filters="sRGB">
<feFlood flood-opacity="0" result="BackgroundImageFix"/>
<feColorMatrix in="SourceAlpha" type="matrix" values="0 0 0 0 0 0 0 0 0 0 0 0 0 0 0 0 0 0 127 0" result="hardAlpha"/>
<feOffset dy="1"/>
<feGaussianBlur stdDeviation="1"/>
<feColorMatrix type="matrix" values="0 0 0 0 0.0627451 0 0 0 0 0.0941176 0 0 0 0 0.156863 0 0 0 0.06 0"/>
<feBlend mode="normal" in2="BackgroundImageFix" result="effect1_dropShadow_76_25373"/>
<feColorMatrix in="SourceAlpha" type="matrix" values="0 0 0 0 0 0 0 0 0 0 0 0 0 0 0 0 0 0 127 0" result="hardAlpha"/>
<feOffset dy="1"/>
<feGaussianBlur stdDeviation="1.5"/>
<feColorMatrix type="matrix" values="0 0 0 0 0.0627451 0 0 0 0 0.0941176 0 0 0 0 0.156863 0 0 0 0.1 0"/>
<feBlend mode="normal" in2="effect1_dropShadow_76_25373" result="effect2_dropShadow_76_25373"/>
<feBlend mode="normal" in="SourceGraphic" in2="effect2_dropShadow_76_25373" result="shape"/>
</filter>
<filter id="filter2_b_76_25373" x="-2" y="13" width="42" height="26" filterUnits="userSpaceOnUse" color-interpolation-filters="sRGB">
<feFlood flood-opacity="0" result="BackgroundImageFix"/>
<feGaussianBlur in="BackgroundImageFix" stdDeviation="2.5"/>
<feComposite in2="SourceAlpha" operator="in" result="effect1_backgroundBlur_76_25373"/>
<feBlend mode="normal" in="SourceGraphic" in2="effect1_backgroundBlur_76_25373" result="shape"/>
</filter>
<linearGradient id="paint0_linear_76_25373" x1="19" y1="2" x2="19" y2="34" gradientUnits="userSpaceOnUse">
<stop stop-color="white"/>
<stop offset="1" stop-color="#D0D5DD"/>
</linearGradient>
<linearGradient id="paint1_linear_76_25373" x1="15" y1="26" x2="23" y2="10" gradientUnits="userSpaceOnUse">
<stop stop-color="#53389E"/>
<stop offset="1" stop-color="#6941C6"/>
</linearGradient>
<clipPath id="clip0_76_25373">
<rect x="3" y="2" width="32" height="32" rx="8" fill="white"/>
</clipPath>
</defs>
</svg>
